<svg xmlns="http://www.w3.org/2000/svg" fill="none" viewBox="0 0 394 80"><path fill="#000" d="M262 0h68.5v12.7h-27.2v66.6h-13.1V12.7H262V0ZM149 0v12.7H94v21.8H144.8v12.7H94v21.7h55.1v12.8H80.8V0h68.2Zm34.8 0L226 51.5 268.1 0h-25.8l-28.4 37.1L185.5 0h-28.3L191 51.6 148.7 79.3h25.7L201.5 44l27.4 35.3h25.7L214 51.6 248.5 0h-34.7zM383 0h-23.7l-56.1 79.3h23.7l17.2-24.3 17.1 24.3h23.8L361.1 39.7 383 0zM349.3 45.4l-12.5-17.8-12.5 17.8h25z"/><path fill="#000" d="M0 0h22.9L117 63V0h13.1v79.3H107L12.1 16.2v63.1H0V0z"/></svg>
